{"title":"Sona Spa 2013 HDScam (IcTv) - Hindi","uid":8314513,"size":734480388,"categoryP":"video","categoryS":"movies","magnet":"?xt=urn:btih:59e0ca19570f89f94e970cd062cbc652fe003c95&amp;dn=Sona+Spa+2013+HDScam+%28IcTv%29+-+Hindi&amp;tr=udp%3A%2F%2Ftracker.openbittorrent.com%3A80&amp;tr=udp%3A%2F%2Fopen.demonii.com%3A1337&amp;tr=udp%3A%2F%2Ftracker.coppersurfer.tk%3A6969&amp;tr=udp%3A%2F%2Fexodus.desync.com%3A6969","seeders":2,"leechers":0,"uploader":"SJonam","files":1,"time":1364553351,"description":" &lt;a href=&quot;http://desibbrg.org/images/66952052392581364616.gif&quot; rel=&quot;nofollow&quot; target=&quot;_NEW&quot;&gt;http://desibbrg.org/images/66952052392581364616.gif&lt;/a&gt; &lt;a href=&quot;\nhttp://desibbrg.org/images/71096590673174034998.jpg&quot; rel=&quot;nofollow&quot; target=&quot;_NEW&quot;&gt;\nhttp://desibbrg.org/images/71096590673174034998.jpg&lt;/a&gt; &lt;a href=&quot;\nhttp://desibbrg.org/images/75496082183624703179.jpg&quot; rel=&quot;nofollow&quot; target=&quot;_NEW&quot;&gt;\nhttp://desibbrg.org/images/75496082183624703179.jpg&lt;/a&gt; &lt;a href=&quot;\nhttp://desibbrg.org/images/76877851351702946196.jpg&quot; rel=&quot;nofollow&quot; target=&quot;_NEW&quot;&gt;\nhttp://desibbrg.org/images/76877851351702946196.jpg&lt;/a&gt; &lt;a href=&quot;\nhttp://desibbrg.org/images/38166693168310560592.jpg&quot; rel=&quot;nofollow&quot; target=&quot;_NEW&quot;&gt;\nhttp://desibbrg.org/images/38166693168310560592.jpg&lt;/a&gt; &lt;a href=&quot;\nhttp://desibbrg.org/images/66363257340877652445.jpg&quot; rel=&quot;nofollow&quot; target=&quot;_NEW&quot;&gt;\nhttp://desibbrg.org/images/66363257340877652445.jpg&lt;/a&gt;\n\nMedia Info - \nVideo\nID : 224 (0xE0)\nFormat : MPEG Video\nFormat version : Version 2\nFormat profile : Main@Main\nFormat settings, BVOP : Yes\nFormat settings, Matrix : Custom\nFormat settings, GOP : M=3, N=18\nDuration : 1h 40mn\nBit rate mode : Variable\nBit rate : 900 Kbps\nWidth : 352 pixels\nHeight : 288 pixels\nDisplay aspect ratio : 4:3\nFrame rate : 25.000 fps\nStandard : NTSC\nColor space : YUV\nChroma subsampling : 4:2:0\nBit depth : 8 bits\nScan type : Progressive\nCompression mode : Lossy\nBits/(Pixel*Frame) : 0.355\nStream size : 641 MiB (91%)\n\nAudio\nID : 192 (0xC0)\nFormat : MPEG Audio\nFormat version : Version 1\nFormat profile : Layer 2\nDuration : 1h 40mn\nBit rate mode : Constant\nBit rate : 64.0 Kbps\nChannel(s) : 2 channels\nSampling rate : 48.0 KHz\nCompression mode : Lossy\nStream size : 45.8 MiB (7%)\n\nRipper : Master Mind\n\nSeeding 24x7... Extreme Seeding...\n\n\nEnjoy!\n","torrent":{"xt":"urn:btih:59e0ca19570f89f94e970cd062cbc652fe003c95","amp;dn":"Sona+Spa+2013+HDScam+%28IcTv%29+-+Hindi","amp;tr":["udp%3A%2F%2Ftracker.openbittorrent.com%3A80","udp%3A%2F%2Fopen.demonii.com%3A1337","udp%3A%2F%2Ftracker.coppersurfer.tk%3A6969","udp%3A%2F%2Fexodus.desync.com%3A6969"],"infoHash":"59e0ca19570f89f94e970cd062cbc652fe003c95","infoHashBuffer":{"type":"Buffer","data":[89,224,202,25,87,15,137,249,78,151,12,208,98,203,198,82,254,0,60,149]},"announce":[],"urlList":[]}}